<svg xmlns="http://www.w3.org/2000/svg" viewBox="1426 844 988 709" role="img" aria-label="skillnawayath">
  <defs><clipPath id="mark"><path d="M1776,909 A29,29 0 0 1 1805,880 L2000,880 A57,57 0 0 1 2057,937 L2057,1250 A29,29 0 0 1 2028,1279 L1833,1279 A57,57 0 0 1 1776,1222 Z"/></clipPath></defs>
  <g clip-path="url(#mark)">
    <polygon points="1676,809.7 2157,1296.3 2157,680 1676,680" fill="#842430"/>
    <polygon points="1676,863.7 2157,1349.9 2157,1479 1676,1479" fill="#3b367a"/>
  </g>
  <path transform="translate(1462,1382) scale(0.070224,-0.070224) translate(-54,-1536)" d="M703 969 613 876Q501 985 394 985Q326 985 277.5 940.0Q229 895 229 835Q229 782 269 734Q309 685 437 619Q593 538 649 463Q704 387 704 292Q704 158 610.0 65.0Q516 -28 375 -28Q281 -28 195.5 13.0Q110 54 54 126L142 226Q249 105 369 105Q453 105 512.0 159.0Q571 213 571 286Q571 346 532 393Q493 439 356 509Q209 585 156 659Q103 733 103 828Q103 952 187.5 1034.0Q272 1116 401 1116Q551 1116 703 969ZM950 1508H1091V650L1594 1088H1800L1203 569L1835 0H1637L1091 489V0H950ZM2028 1536Q2076 1536 2110.0 1502.0Q2144 1468 2144 1420Q2144 1373 2110.0 1339.0Q2076 1305 2028 1305Q1981 1305 1947.0 1339.0Q1913 1373 1913 1420Q1913 1468 1947.0 1502.0Q1981 1536 2028 1536ZM1958 1088H2099V0H1958ZM2368 1508H2508V0H2368ZM2778 1508H2918V0H2778ZM3209 1088H3349V893Q3433 1005 3535.0 1060.5Q3637 1116 3757 1116Q3879 1116 3973.5 1054.0Q4068 992 4113.0 887.0Q4158 782 4158 560V0H4019V519Q4019 707 4003 770Q3978 878 3909.0 932.5Q3840 987 3729 987Q3602 987 3501.5 903.0Q3401 819 3369 695Q3349 614 3349 399V0H3209ZM5542 1088V0H5404V187Q5316 80 5206.5 26.0Q5097 -28 4967 -28Q4736 -28 4572.5 139.5Q4409 307 4409 547Q4409 782 4574.0 949.0Q4739 1116 4971 1116Q5105 1116 5213.5 1059.0Q5322 1002 5404 888V1088ZM4982 981Q4865 981 4766.0 923.5Q4667 866 4608.5 762.0Q4550 658 4550 542Q4550 427 4609.0 322.0Q4668 217 4767.5 158.5Q4867 100 4981 100Q5096 100 5199.0 158.0Q5302 216 5357.5 315.0Q5413 414 5413 538Q5413 727 5288.5 854.0Q5164 981 4982 981ZM5710 1088H5854L6187 298L6536 1088H6561L6909 298L7248 1088H7394L6922 0H6895L6549 779L6200 0H6174ZM8643 1088V0H8505V187Q8417 80 8307.5 26.0Q8198 -28 8068 -28Q7837 -28 7673.5 139.5Q7510 307 7510 547Q7510 782 7675.0 949.0Q7840 1116 8072 1116Q8206 1116 8314.5 1059.0Q8423 1002 8505 888V1088ZM8083 981Q7966 981 7867.0 923.5Q7768 866 7709.5 762.0Q7651 658 7651 542Q7651 427 7710.0 322.0Q7769 217 7868.5 158.5Q7968 100 8082 100Q8197 100 8300.0 158.0Q8403 216 8458.5 315.0Q8514 414 8514 538Q8514 727 8389.5 854.0Q8265 981 8083 981ZM8841 1088H8989L9363 250L9726 1088H9875L9226 -398H9078L9288 82ZM11140 1088V0H11002V187Q10914 80 10804.5 26.0Q10695 -28 10565 -28Q10334 -28 10170.5 139.5Q10007 307 10007 547Q10007 782 10172.0 949.0Q10337 1116 10569 1116Q10703 1116 10811.5 1059.0Q10920 1002 11002 888V1088ZM10580 981Q10463 981 10364.0 923.5Q10265 866 10206.5 762.0Q10148 658 10148 542Q10148 427 10207.0 322.0Q10266 217 10365.5 158.5Q10465 100 10579 100Q10694 100 10797.0 158.0Q10900 216 10955.5 315.0Q11011 414 11011 538Q11011 727 10886.5 854.0Q10762 981 10580 981ZM11577 1492H11718V1088H11940V968H11718V0H11577V968H11386V1088H11577ZM12149 1508H12289V893Q12374 1005 12476.0 1060.5Q12578 1116 12697 1116Q12819 1116 12913.5 1054.0Q13008 992 13053.0 887.5Q13098 783 13098 560V0H12958V519Q12958 707 12943 770Q12917 878 12848.5 932.5Q12780 987 12669 987Q12542 987 12441.5 903.0Q12341 819 12309 695Q12289 615 12289 399V0H12149Z" fill="#111111"/>
</svg>